<?xml version="1.0" encoding="utf-8"?>
<!-- Generator: Adobe Illustrator 25.2.3, SVG Export Plug-In . SVG Version: 6.00 Build 0)  -->
<svg version="1.1" id="Capa_1" xmlns="http://www.w3.org/2000/svg" xmlns:xlink="http://www.w3.org/1999/xlink" x="0px" y="0px"
	 viewBox="0 0 1080 1080" style="enable-background:new 0 0 1080 1080;" xml:space="preserve">
<style type="text/css">
	.st0{fill:url(#SVGID_1_);}
	.st1{fill:url(#SVGID_2_);}
	.st2{fill:url(#SVGID_3_);}
	.st3{fill:url(#SVGID_4_);}
	.st4{fill:url(#SVGID_5_);}
	.st5{fill:url(#SVGID_6_);}
</style>
<linearGradient id="SVGID_1_" gradientUnits="userSpaceOnUse" x1="-1485.6222" y1="2121.8052" x2="-649.3141" y2="2121.8052" gradientTransform="matrix(0 1 -1 0 2661.8052 1607.4681)">
	<stop  offset="0" style="stop-color:#3B0267"/>
	<stop  offset="0.9964" style="stop-color:#21023A"/>
</linearGradient>
<path class="st0" d="M115.3,747.8V332.2c0-116.2,94.2-210.4,210.4-210.4h428.6c116.2,0,210.4,94.2,210.4,210.4v415.5
	c0,116.2-94.2,210.4-210.4,210.4H325.7C209.5,958.2,115.3,864,115.3,747.8z"/>
<g>
	<g>
		<linearGradient id="SVGID_2_" gradientUnits="userSpaceOnUse" x1="355.4491" y1="724.9704" x2="686.6345" y2="724.9704">
			<stop  offset="0" style="stop-color:#3B0066"/>
			<stop  offset="2.287949e-02" style="stop-color:#370D71"/>
			<stop  offset="0.1337" style="stop-color:#2349A3"/>
			<stop  offset="0.2355" style="stop-color:#1479CB"/>
			<stop  offset="0.3249" style="stop-color:#099BE7"/>
			<stop  offset="0.3985" style="stop-color:#02AFF9"/>
			<stop  offset="0.4472" style="stop-color:#00B7FF"/>
			<stop  offset="0.5137" style="stop-color:#18A6F4"/>
			<stop  offset="0.6543" style="stop-color:#557AD8"/>
			<stop  offset="0.8554" style="stop-color:#B535AB"/>
			<stop  offset="1" style="stop-color:#FF0089"/>
		</linearGradient>
		<path class="st1" d="M576.4,708.2c-12.8,10.9-29.6,16.4-49.8,16.4c-23.3,0-42-6.6-55.8-19.5c-11.9-11.3-19.9-25.4-23.8-42h-91.6
			c5.5,35.9,22.1,65.3,49.3,87.4c29.7,24.1,70.5,36.4,121.1,36.4c48.8,0,88.3-11.9,117.6-35.3c27.5-22,41.7-51,43.1-88.4h-43.4
			c-23.3,0-43.9,13.2-56.3,33C584.1,700.6,580.6,704.6,576.4,708.2z"/>
		<linearGradient id="SVGID_3_" gradientUnits="userSpaceOnUse" x1="344.4513" y1="439.4993" x2="667.7273" y2="439.4993">
			<stop  offset="0" style="stop-color:#3B0066"/>
			<stop  offset="2.287949e-02" style="stop-color:#370D71"/>
			<stop  offset="0.1337" style="stop-color:#2349A3"/>
			<stop  offset="0.2355" style="stop-color:#1479CB"/>
			<stop  offset="0.3249" style="stop-color:#099BE7"/>
			<stop  offset="0.3985" style="stop-color:#02AFF9"/>
			<stop  offset="0.4472" style="stop-color:#00B7FF"/>
			<stop  offset="0.5137" style="stop-color:#18A6F4"/>
			<stop  offset="0.6543" style="stop-color:#557AD8"/>
			<stop  offset="0.8554" style="stop-color:#B535AB"/>
			<stop  offset="1" style="stop-color:#FF0089"/>
		</linearGradient>
		<path class="st2" d="M477,293.1c-23.3,2.4-43.9,8.2-61.3,17.2c-23.5,12.2-41.4,28.5-53.3,48.6c-11.9,20.1-18,42.4-18,66.2
			c0,30.2,6.6,54.8,19.7,73.1c13.3,18.6,29.5,32.7,48.3,42c19.7,9.7,45.7,20.3,77.3,31.4c15,4.9,28.5,9.7,40,14.3h138c0,0,0,0,0,0
			c-13.1-18.4-29.3-32.5-48-42.1c-19.4-9.9-44.7-20.1-75.3-30.3c-24.2-8.1-43.5-15.3-57.3-21.5c-14.7-6.6-27-15.5-36.7-26.4
			c-10.3-11.6-15.5-26.4-15.5-43.9c0-19.6,6.4-35.9,19-48.6c0.1-0.1,0.1-0.1,0.2-0.2c13.9-13.8,22.8-31.9,22.8-51.5V293.1z"/>
	</g>
	<g>
		
			<linearGradient id="SVGID_4_" gradientUnits="userSpaceOnUse" x1="310.2141" y1="4278.5752" x2="678.8381" y2="3909.9512" gradientTransform="matrix(-1 0 0 -1 1089.1293 4755.9072)">
			<stop  offset="0" style="stop-color:#3B0066"/>
			<stop  offset="0.1555" style="stop-color:#890381"/>
			<stop  offset="0.3224" style="stop-color:#D8079D"/>
			<stop  offset="0.3992" style="stop-color:#F708A8"/>
			<stop  offset="0.4558" style="stop-color:#F93497"/>
			<stop  offset="0.5241" style="stop-color:#FA6285"/>
			<stop  offset="0.5951" style="stop-color:#FC8975"/>
			<stop  offset="0.6677" style="stop-color:#FDA968"/>
			<stop  offset="0.7426" style="stop-color:#FEC25E"/>
			<stop  offset="0.8204" style="stop-color:#FED457"/>
			<stop  offset="0.9034" style="stop-color:#FFDF53"/>
			<stop  offset="1" style="stop-color:#FFE252"/>
		</linearGradient>
		<path class="st3" d="M625.3,708.2c-12.8,10.9-29.6,16.4-49.8,16.4c-23.3,0-42-6.6-55.8-19.5c-11.9-11.3-19.9-25.4-23.8-42h-91.6
			c5.5,35.9,22.1,65.3,49.3,87.4c29.7,24.1,70.5,36.4,121.1,36.4c48.8,0,88.3-11.9,117.6-35.3c27.5-22,41.7-51,43.1-88.4h-43.4
			c-23.3,0-43.9,13.2-56.3,33C633,700.6,629.5,704.6,625.3,708.2z"/>
		
			<linearGradient id="SVGID_5_" gradientUnits="userSpaceOnUse" x1="393.0046" y1="4418.2417" x2="789.0325" y2="4022.2139" gradientTransform="matrix(-1 0 0 -1 1089.1293 4755.9072)">
			<stop  offset="0" style="stop-color:#3B0066"/>
			<stop  offset="0.1555" style="stop-color:#890381"/>
			<stop  offset="0.3224" style="stop-color:#D8079D"/>
			<stop  offset="0.3992" style="stop-color:#F708A8"/>
			<stop  offset="0.4558" style="stop-color:#F93497"/>
			<stop  offset="0.5241" style="stop-color:#FA6285"/>
			<stop  offset="0.5951" style="stop-color:#FC8975"/>
			<stop  offset="0.6677" style="stop-color:#FDA968"/>
			<stop  offset="0.7426" style="stop-color:#FEC25E"/>
			<stop  offset="0.8204" style="stop-color:#FED457"/>
			<stop  offset="0.9034" style="stop-color:#FFDF53"/>
			<stop  offset="1" style="stop-color:#FFE252"/>
		</linearGradient>
		<path class="st4" d="M525.9,293.1c-23.3,2.4-43.9,8.2-61.3,17.2c-23.5,12.2-41.4,28.5-53.3,48.6c-11.9,20.1-18,42.4-18,66.2
			c0,30.2,6.6,54.8,19.7,73.1c13.3,18.6,29.5,32.7,48.3,42c19.7,9.7,45.7,20.3,77.3,31.4c15,4.9,28.5,9.7,40,14.3h138c0,0,0,0,0,0
			c-13.1-18.4-29.3-32.5-48-42.1c-19.4-9.9-44.7-20.1-75.3-30.3c-24.2-8.1-43.5-15.3-57.3-21.5c-14.7-6.6-27-15.5-36.7-26.4
			c-10.3-11.6-15.5-26.4-15.5-43.9c0-19.6,6.4-35.9,19-48.6c0.1-0.1,0.1-0.1,0.2-0.2c13.9-13.8,22.8-31.9,22.8-51.5V293.1z"/>
	</g>
</g>
<linearGradient id="SVGID_6_" gradientUnits="userSpaceOnUse" x1="443.5479" y1="445.8321" x2="443.5479" y2="347.1509" gradientTransform="matrix(0.7071 0.7071 -0.7071 0.7071 618.9601 -182.0801)">
	<stop  offset="0" style="stop-color:#3B0066"/>
	<stop  offset="2.287949e-02" style="stop-color:#370D71"/>
	<stop  offset="0.1337" style="stop-color:#2349A3"/>
	<stop  offset="0.2355" style="stop-color:#1479CB"/>
	<stop  offset="0.3249" style="stop-color:#099BE7"/>
	<stop  offset="0.3985" style="stop-color:#02AFF9"/>
	<stop  offset="0.4472" style="stop-color:#00B7FF"/>
	<stop  offset="0.5137" style="stop-color:#18A6F4"/>
	<stop  offset="0.6543" style="stop-color:#557AD8"/>
	<stop  offset="0.8554" style="stop-color:#B535AB"/>
	<stop  offset="1" style="stop-color:#FF0089"/>
</linearGradient>
<polygon class="st5" points="674.1,420.6 721.4,411.3 674.6,402.2 687.1,377 662,389.5 652.8,342.7 643.6,390 617.9,377.6 
	629.9,402.4 584.2,411.3 630.5,420.3 617.3,446.8 643.8,433.7 652.8,479.9 661.8,434.2 686.5,446.2 "/>
</svg>
