<?xml version="1.0" encoding="utf-8"?>
<!-- Generator: Adobe Illustrator 25.2.3, SVG Export Plug-In . SVG Version: 6.00 Build 0)  -->
<svg version="1.1" id="Capa_1" xmlns="http://www.w3.org/2000/svg" xmlns:xlink="http://www.w3.org/1999/xlink" x="0px" y="0px"
	 viewBox="0 0 1080 1080" style="enable-background:new 0 0 1080 1080;" xml:space="preserve">
<style type="text/css">
	@font-face {
		font-family: 'BudokanRounded';
		src: url('../fonts/BudokanRounded-Bold.ttf') format('truetype'),
			url('../fonts/BudokanRounded-Bold.woff') format('woff'),
			url('../fonts/BudokanRounded-Bold.woff') format('woff2');
		}
	.st0{fill:url(#SVGID_1_);}
	.st1{fill:url(#SVGID_2_);}
	.st2{fill:url(#SVGID_3_);}
	.st3{fill:url(#SVGID_4_);}
	.st4{fill:url(#SVGID_5_);}
	.st5{fill:none;}
	.st6{font-family:'BudokanRounded';}
	.st7{font-size:109.7682px;}
</style>
<g>
	<linearGradient id="SVGID_1_" gradientUnits="userSpaceOnUse" x1="266.4493" y1="711.2955" x2="721.8403" y2="711.2955">
		<stop  offset="0" style="stop-color:#3B0066"/>
		<stop  offset="2.287949e-02" style="stop-color:#370D71"/>
		<stop  offset="0.1337" style="stop-color:#2349A3"/>
		<stop  offset="0.2355" style="stop-color:#1479CB"/>
		<stop  offset="0.3249" style="stop-color:#099BE7"/>
		<stop  offset="0.3985" style="stop-color:#02AFF9"/>
		<stop  offset="0.4472" style="stop-color:#00B7FF"/>
		<stop  offset="0.5137" style="stop-color:#18A6F4"/>
		<stop  offset="0.6543" style="stop-color:#557AD8"/>
		<stop  offset="0.8554" style="stop-color:#B535AB"/>
		<stop  offset="1" style="stop-color:#FF0089"/>
	</linearGradient>
	<path class="st0" d="M570.3,688.2c-17.6,15-40.6,22.6-68.5,22.6c-32,0-57.8-9-76.7-26.9c-16.4-15.5-27.4-34.9-32.7-57.7H266.4
		c7.6,49.4,30.4,89.8,67.8,120.1c40.9,33.2,96.9,50,166.6,50c67.1,0,121.5-16.3,161.7-48.6c37.8-30.3,57.3-70.2,59.3-121.6h-59.6
		c-32.1,0-60.3,18.1-77.4,45.3C580.9,677.8,576,683.3,570.3,688.2z"/>
	<linearGradient id="SVGID_2_" gradientUnits="userSpaceOnUse" x1="251.327" y1="318.7631" x2="695.8424" y2="318.7631">
		<stop  offset="0" style="stop-color:#3B0066"/>
		<stop  offset="2.287949e-02" style="stop-color:#370D71"/>
		<stop  offset="0.1337" style="stop-color:#2349A3"/>
		<stop  offset="0.2355" style="stop-color:#1479CB"/>
		<stop  offset="0.3249" style="stop-color:#099BE7"/>
		<stop  offset="0.3985" style="stop-color:#02AFF9"/>
		<stop  offset="0.4472" style="stop-color:#00B7FF"/>
		<stop  offset="0.5137" style="stop-color:#18A6F4"/>
		<stop  offset="0.6543" style="stop-color:#557AD8"/>
		<stop  offset="0.8554" style="stop-color:#B535AB"/>
		<stop  offset="1" style="stop-color:#FF0089"/>
	</linearGradient>
	<path class="st1" d="M433.6,117.5c-32.1,3.3-60.4,11.2-84.2,23.6c-32.3,16.8-57,39.2-73.3,66.8c-16.4,27.6-24.7,58.3-24.7,91
		c0,41.5,9.1,75.3,27.1,100.5c18.3,25.6,40.6,45,66.4,57.7c27.1,13.4,62.8,27.9,106.2,43.2c20.6,6.7,39.2,13.4,55,19.6h189.8
		c0,0,0,0,0,0c-18-25.3-40.2-44.8-65.9-57.9c-26.7-13.7-61.5-27.7-103.5-41.7c-33.2-11.1-59.7-21-78.9-29.6
		c-20.2-9-37.1-21.3-50.5-36.4c-14.1-16-21.3-36.3-21.3-60.4c0-27,8.8-49.4,26.1-66.8c0.1-0.1,0.2-0.2,0.3-0.2
		c19.2-19,31.4-43.8,31.4-70.8V117.5z"/>
</g>
<g>
	
		<linearGradient id="SVGID_3_" gradientUnits="userSpaceOnUse" x1="240.3998" y1="4385.1226" x2="747.2702" y2="3878.2522" gradientTransform="matrix(-1 0 0 -1 1089.1293 4755.9072)">
		<stop  offset="0" style="stop-color:#3B0066"/>
		<stop  offset="0.1555" style="stop-color:#890381"/>
		<stop  offset="0.3224" style="stop-color:#D8079D"/>
		<stop  offset="0.3992" style="stop-color:#F708A8"/>
		<stop  offset="0.4558" style="stop-color:#F93497"/>
		<stop  offset="0.5241" style="stop-color:#FA6285"/>
		<stop  offset="0.5951" style="stop-color:#FC8975"/>
		<stop  offset="0.6677" style="stop-color:#FDA968"/>
		<stop  offset="0.7426" style="stop-color:#FEC25E"/>
		<stop  offset="0.8204" style="stop-color:#FED457"/>
		<stop  offset="0.9034" style="stop-color:#FFDF53"/>
		<stop  offset="1" style="stop-color:#FFE252"/>
	</linearGradient>
	<path class="st2" d="M637.6,688.2c-17.6,15-40.6,22.6-68.5,22.6c-32,0-57.8-9-76.7-26.9c-16.4-15.5-27.4-34.9-32.7-57.7H333.7
		c7.6,49.4,30.4,89.8,67.8,120.1c40.9,33.2,96.9,50,166.6,50c67.1,0,121.5-16.3,161.7-48.6c37.8-30.3,57.3-70.2,59.3-121.6h-59.6
		c-32.1,0-60.3,18.1-77.4,45.3C648.1,677.8,643.3,683.3,637.6,688.2z"/>
	
		<linearGradient id="SVGID_4_" gradientUnits="userSpaceOnUse" x1="354.2396" y1="4577.1689" x2="898.7913" y2="4032.6174" gradientTransform="matrix(-1 0 0 -1 1089.1293 4755.9072)">
		<stop  offset="0" style="stop-color:#3B0066"/>
		<stop  offset="0.1555" style="stop-color:#890381"/>
		<stop  offset="0.3224" style="stop-color:#D8079D"/>
		<stop  offset="0.3992" style="stop-color:#F708A8"/>
		<stop  offset="0.4558" style="stop-color:#F93497"/>
		<stop  offset="0.5241" style="stop-color:#FA6285"/>
		<stop  offset="0.5951" style="stop-color:#FC8975"/>
		<stop  offset="0.6677" style="stop-color:#FDA968"/>
		<stop  offset="0.7426" style="stop-color:#FEC25E"/>
		<stop  offset="0.8204" style="stop-color:#FED457"/>
		<stop  offset="0.9034" style="stop-color:#FFDF53"/>
		<stop  offset="1" style="stop-color:#FFE252"/>
	</linearGradient>
	<path class="st3" d="M500.8,117.5c-32.1,3.3-60.4,11.2-84.2,23.6c-32.3,16.8-57,39.2-73.3,66.8c-16.4,27.6-24.7,58.3-24.7,91
		c0,41.5,9.1,75.3,27.1,100.5c18.3,25.6,40.6,45,66.4,57.7c27.1,13.4,62.8,27.9,106.2,43.2c20.6,6.7,39.2,13.4,55,19.6h189.8
		c0,0,0,0,0,0c-18-25.3-40.2-44.8-65.9-57.9c-26.7-13.7-61.5-27.7-103.5-41.7c-33.2-11.1-59.7-21-78.9-29.6
		c-20.2-9-37.1-21.3-50.5-36.4c-14.1-16-21.3-36.3-21.3-60.4c0-27,8.8-49.4,26.1-66.8c0.1-0.1,0.2-0.2,0.3-0.2
		c19.2-19,31.4-43.8,31.4-70.8V117.5z"/>
</g>
<linearGradient id="SVGID_5_" gradientUnits="userSpaceOnUse" x1="366.6295" y1="355.8745" x2="366.6295" y2="220.1845" gradientTransform="matrix(0.7071 0.7071 -0.7071 0.7071 618.9601 -182.0801)">
	<stop  offset="0" style="stop-color:#3B0066"/>
	<stop  offset="2.287949e-02" style="stop-color:#370D71"/>
	<stop  offset="0.1337" style="stop-color:#2349A3"/>
	<stop  offset="0.2355" style="stop-color:#1479CB"/>
	<stop  offset="0.3249" style="stop-color:#099BE7"/>
	<stop  offset="0.3985" style="stop-color:#02AFF9"/>
	<stop  offset="0.4472" style="stop-color:#00B7FF"/>
	<stop  offset="0.5137" style="stop-color:#18A6F4"/>
	<stop  offset="0.6543" style="stop-color:#557AD8"/>
	<stop  offset="0.8554" style="stop-color:#B535AB"/>
	<stop  offset="1" style="stop-color:#FF0089"/>
</linearGradient>
<polygon class="st4" points="704.6,292.7 769.7,280 705.3,267.4 722.5,232.9 687.9,250 675.4,185.7 662.7,250.7 627.4,233.7 
	643.9,267.7 581,280 644.6,292.4 626.6,328.8 662.9,310.7 675.4,374.3 687.6,311.5 721.7,328 "/>
<rect x="250.5" y="878.3" class="st5" width="579" height="84.2"/>
</svg>
